<mxfile host="Electron" modified="2024-04-28T13:14:14.483Z" agent="Mozilla/5.0 (Windows NT 10.0; Win64; x64) AppleWebKit/537.36 (KHTML, like Gecko) draw.io/24.1.0 Chrome/120.0.6099.109 Electron/28.1.0 Safari/537.36" etag="Wmf-XpAtjSynHbZQGHCb" version="24.1.0" type="device">
  <diagram name="Pagina-1" id="lc95h8UqZmea6v1qgLT5">
    <mxGraphModel dx="1036" dy="614" grid="1" gridSize="10" guides="1" tooltips="1" connect="1" arrows="1" fold="1" page="1" pageScale="1" pageWidth="827" pageHeight="1169" math="0" shadow="0">
      <root>
        <mxCell id="0" />
        <mxCell id="1" parent="0" />
        <mxCell id="Y0cDQDf-0q0PCAZUI5pu-1" value="&lt;b&gt;&lt;font style=&quot;font-size: 22px;&quot;&gt;App per prenotazione corsi in palestra&lt;/font&gt;&lt;/b&gt;" style="text;strokeColor=none;fillColor=none;align=left;verticalAlign=middle;spacingLeft=4;spacingRight=4;overflow=hidden;points=[[0,0.5],[1,0.5]];portConstraint=eastwest;rotatable=0;whiteSpace=wrap;html=1;" vertex="1" parent="1">
          <mxGeometry x="110" y="40" width="490" height="30" as="geometry" />
        </mxCell>
        <mxCell id="Y0cDQDf-0q0PCAZUI5pu-28" style="edgeStyle=orthogonalEdgeStyle;rounded=0;orthogonalLoop=1;jettySize=auto;html=1;entryX=0;entryY=0.5;entryDx=0;entryDy=0;" edge="1" parent="1" source="Y0cDQDf-0q0PCAZUI5pu-2" target="Y0cDQDf-0q0PCAZUI5pu-9">
          <mxGeometry relative="1" as="geometry" />
        </mxCell>
        <mxCell id="Y0cDQDf-0q0PCAZUI5pu-29" style="edgeStyle=orthogonalEdgeStyle;rounded=0;orthogonalLoop=1;jettySize=auto;html=1;entryX=0;entryY=0.5;entryDx=0;entryDy=0;" edge="1" parent="1" source="Y0cDQDf-0q0PCAZUI5pu-2" target="Y0cDQDf-0q0PCAZUI5pu-10">
          <mxGeometry relative="1" as="geometry" />
        </mxCell>
        <mxCell id="Y0cDQDf-0q0PCAZUI5pu-30" style="edgeStyle=orthogonalEdgeStyle;rounded=0;orthogonalLoop=1;jettySize=auto;html=1;entryX=0;entryY=0.5;entryDx=0;entryDy=0;" edge="1" parent="1" source="Y0cDQDf-0q0PCAZUI5pu-2" target="Y0cDQDf-0q0PCAZUI5pu-3">
          <mxGeometry relative="1" as="geometry" />
        </mxCell>
        <mxCell id="Y0cDQDf-0q0PCAZUI5pu-50" style="edgeStyle=orthogonalEdgeStyle;rounded=0;orthogonalLoop=1;jettySize=auto;html=1;" edge="1" parent="1" source="Y0cDQDf-0q0PCAZUI5pu-2">
          <mxGeometry relative="1" as="geometry">
            <mxPoint x="330" y="260" as="targetPoint" />
          </mxGeometry>
        </mxCell>
        <mxCell id="Y0cDQDf-0q0PCAZUI5pu-2" value="UTENTE" style="rounded=0;whiteSpace=wrap;html=1;" vertex="1" parent="1">
          <mxGeometry x="60" y="230" width="120" height="60" as="geometry" />
        </mxCell>
        <mxCell id="Y0cDQDf-0q0PCAZUI5pu-40" style="edgeStyle=orthogonalEdgeStyle;rounded=0;orthogonalLoop=1;jettySize=auto;html=1;entryX=0;entryY=0.5;entryDx=0;entryDy=0;" edge="1" parent="1" source="Y0cDQDf-0q0PCAZUI5pu-4" target="Y0cDQDf-0q0PCAZUI5pu-17">
          <mxGeometry relative="1" as="geometry" />
        </mxCell>
        <mxCell id="Y0cDQDf-0q0PCAZUI5pu-41" style="edgeStyle=orthogonalEdgeStyle;rounded=0;orthogonalLoop=1;jettySize=auto;html=1;entryX=0;entryY=0.5;entryDx=0;entryDy=0;" edge="1" parent="1" source="Y0cDQDf-0q0PCAZUI5pu-4" target="Y0cDQDf-0q0PCAZUI5pu-15">
          <mxGeometry relative="1" as="geometry" />
        </mxCell>
        <mxCell id="Y0cDQDf-0q0PCAZUI5pu-42" style="edgeStyle=orthogonalEdgeStyle;rounded=0;orthogonalLoop=1;jettySize=auto;html=1;entryX=0;entryY=0.5;entryDx=0;entryDy=0;" edge="1" parent="1" source="Y0cDQDf-0q0PCAZUI5pu-4" target="Y0cDQDf-0q0PCAZUI5pu-16">
          <mxGeometry relative="1" as="geometry" />
        </mxCell>
        <mxCell id="Y0cDQDf-0q0PCAZUI5pu-45" style="edgeStyle=orthogonalEdgeStyle;rounded=0;orthogonalLoop=1;jettySize=auto;html=1;entryX=0;entryY=0.5;entryDx=0;entryDy=0;" edge="1" parent="1" source="Y0cDQDf-0q0PCAZUI5pu-4" target="Y0cDQDf-0q0PCAZUI5pu-14">
          <mxGeometry relative="1" as="geometry" />
        </mxCell>
        <mxCell id="Y0cDQDf-0q0PCAZUI5pu-46" style="edgeStyle=orthogonalEdgeStyle;rounded=0;orthogonalLoop=1;jettySize=auto;html=1;entryX=0;entryY=0.5;entryDx=0;entryDy=0;" edge="1" parent="1" source="Y0cDQDf-0q0PCAZUI5pu-4" target="Y0cDQDf-0q0PCAZUI5pu-18">
          <mxGeometry relative="1" as="geometry" />
        </mxCell>
        <mxCell id="Y0cDQDf-0q0PCAZUI5pu-47" style="edgeStyle=orthogonalEdgeStyle;rounded=0;orthogonalLoop=1;jettySize=auto;html=1;entryX=0;entryY=0.5;entryDx=0;entryDy=0;" edge="1" parent="1" source="Y0cDQDf-0q0PCAZUI5pu-4" target="Y0cDQDf-0q0PCAZUI5pu-21">
          <mxGeometry relative="1" as="geometry" />
        </mxCell>
        <mxCell id="Y0cDQDf-0q0PCAZUI5pu-48" style="edgeStyle=orthogonalEdgeStyle;rounded=0;orthogonalLoop=1;jettySize=auto;html=1;entryX=0;entryY=0.5;entryDx=0;entryDy=0;" edge="1" parent="1" source="Y0cDQDf-0q0PCAZUI5pu-4" target="Y0cDQDf-0q0PCAZUI5pu-19">
          <mxGeometry relative="1" as="geometry" />
        </mxCell>
        <mxCell id="Y0cDQDf-0q0PCAZUI5pu-49" style="edgeStyle=orthogonalEdgeStyle;rounded=0;orthogonalLoop=1;jettySize=auto;html=1;entryX=0;entryY=0.5;entryDx=0;entryDy=0;" edge="1" parent="1" source="Y0cDQDf-0q0PCAZUI5pu-4" target="Y0cDQDf-0q0PCAZUI5pu-20">
          <mxGeometry relative="1" as="geometry" />
        </mxCell>
        <mxCell id="Y0cDQDf-0q0PCAZUI5pu-51" style="edgeStyle=orthogonalEdgeStyle;rounded=0;orthogonalLoop=1;jettySize=auto;html=1;entryX=1;entryY=0.5;entryDx=0;entryDy=0;" edge="1" parent="1" source="Y0cDQDf-0q0PCAZUI5pu-4" target="Y0cDQDf-0q0PCAZUI5pu-3">
          <mxGeometry relative="1" as="geometry" />
        </mxCell>
        <mxCell id="Y0cDQDf-0q0PCAZUI5pu-52" style="edgeStyle=orthogonalEdgeStyle;rounded=0;orthogonalLoop=1;jettySize=auto;html=1;" edge="1" parent="1" source="Y0cDQDf-0q0PCAZUI5pu-4">
          <mxGeometry relative="1" as="geometry">
            <mxPoint x="430" y="260" as="targetPoint" />
          </mxGeometry>
        </mxCell>
        <mxCell id="Y0cDQDf-0q0PCAZUI5pu-4" value="CORSO" style="rounded=0;whiteSpace=wrap;html=1;" vertex="1" parent="1">
          <mxGeometry x="563" y="230" width="120" height="60" as="geometry" />
        </mxCell>
        <mxCell id="Y0cDQDf-0q0PCAZUI5pu-9" value="" style="ellipse;whiteSpace=wrap;html=1;aspect=fixed;fillColor=#0b0404;" vertex="1" parent="1">
          <mxGeometry x="160" y="130" width="20" height="20" as="geometry" />
        </mxCell>
        <mxCell id="Y0cDQDf-0q0PCAZUI5pu-10" value="" style="ellipse;whiteSpace=wrap;html=1;aspect=fixed;" vertex="1" parent="1">
          <mxGeometry x="160" y="170" width="20" height="20" as="geometry" />
        </mxCell>
        <mxCell id="Y0cDQDf-0q0PCAZUI5pu-11" value="username" style="text;html=1;align=center;verticalAlign=middle;whiteSpace=wrap;rounded=0;" vertex="1" parent="1">
          <mxGeometry x="181" y="125" width="60" height="30" as="geometry" />
        </mxCell>
        <mxCell id="Y0cDQDf-0q0PCAZUI5pu-12" value="password" style="text;html=1;align=center;verticalAlign=middle;whiteSpace=wrap;rounded=0;" vertex="1" parent="1">
          <mxGeometry x="180" y="165" width="60" height="30" as="geometry" />
        </mxCell>
        <mxCell id="Y0cDQDf-0q0PCAZUI5pu-14" value="" style="ellipse;whiteSpace=wrap;html=1;aspect=fixed;" vertex="1" parent="1">
          <mxGeometry x="670" y="469" width="20" height="20" as="geometry" />
        </mxCell>
        <mxCell id="Y0cDQDf-0q0PCAZUI5pu-15" value="" style="ellipse;whiteSpace=wrap;html=1;aspect=fixed;" vertex="1" parent="1">
          <mxGeometry x="670" y="548" width="20" height="20" as="geometry" />
        </mxCell>
        <mxCell id="Y0cDQDf-0q0PCAZUI5pu-16" value="" style="ellipse;whiteSpace=wrap;html=1;aspect=fixed;" vertex="1" parent="1">
          <mxGeometry x="670" y="509" width="20" height="20" as="geometry" />
        </mxCell>
        <mxCell id="Y0cDQDf-0q0PCAZUI5pu-17" value="" style="ellipse;whiteSpace=wrap;html=1;aspect=fixed;" vertex="1" parent="1">
          <mxGeometry x="670" y="588" width="20" height="20" as="geometry" />
        </mxCell>
        <mxCell id="Y0cDQDf-0q0PCAZUI5pu-18" value="" style="ellipse;whiteSpace=wrap;html=1;aspect=fixed;" vertex="1" parent="1">
          <mxGeometry x="670" y="430" width="20" height="20" as="geometry" />
        </mxCell>
        <mxCell id="Y0cDQDf-0q0PCAZUI5pu-19" value="" style="ellipse;whiteSpace=wrap;html=1;aspect=fixed;fillColor=#1f0a0a;" vertex="1" parent="1">
          <mxGeometry x="670" y="350" width="20" height="20" as="geometry" />
        </mxCell>
        <mxCell id="Y0cDQDf-0q0PCAZUI5pu-20" value="" style="ellipse;whiteSpace=wrap;html=1;aspect=fixed;fillColor=#240505;" vertex="1" parent="1">
          <mxGeometry x="670" y="311" width="20" height="20" as="geometry" />
        </mxCell>
        <mxCell id="Y0cDQDf-0q0PCAZUI5pu-21" value="" style="ellipse;whiteSpace=wrap;html=1;aspect=fixed;" vertex="1" parent="1">
          <mxGeometry x="670" y="390" width="20" height="20" as="geometry" />
        </mxCell>
        <mxCell id="Y0cDQDf-0q0PCAZUI5pu-3" value="Prenotare" style="rhombus;whiteSpace=wrap;html=1;" vertex="1" parent="1">
          <mxGeometry x="340" y="220" width="80" height="80" as="geometry" />
        </mxCell>
        <mxCell id="Y0cDQDf-0q0PCAZUI5pu-31" value="codice" style="text;html=1;align=center;verticalAlign=middle;whiteSpace=wrap;rounded=0;" vertex="1" parent="1">
          <mxGeometry x="684" y="306" width="60" height="30" as="geometry" />
        </mxCell>
        <mxCell id="Y0cDQDf-0q0PCAZUI5pu-32" value="nome" style="text;html=1;align=center;verticalAlign=middle;whiteSpace=wrap;rounded=0;" vertex="1" parent="1">
          <mxGeometry x="683" y="345" width="60" height="30" as="geometry" />
        </mxCell>
        <mxCell id="Y0cDQDf-0q0PCAZUI5pu-33" value="descrizione" style="text;html=1;align=center;verticalAlign=middle;whiteSpace=wrap;rounded=0;" vertex="1" parent="1">
          <mxGeometry x="694" y="388" width="60" height="30" as="geometry" />
        </mxCell>
        <mxCell id="Y0cDQDf-0q0PCAZUI5pu-34" value="tipo_corso" style="text;html=1;align=center;verticalAlign=middle;whiteSpace=wrap;rounded=0;" vertex="1" parent="1">
          <mxGeometry x="694" y="425" width="60" height="30" as="geometry" />
        </mxCell>
        <mxCell id="Y0cDQDf-0q0PCAZUI5pu-35" value="data_corso" style="text;html=1;align=center;verticalAlign=middle;whiteSpace=wrap;rounded=0;" vertex="1" parent="1">
          <mxGeometry x="700" y="459" width="60" height="30" as="geometry" />
        </mxCell>
        <mxCell id="Y0cDQDf-0q0PCAZUI5pu-36" value="ora_inizio" style="text;html=1;align=center;verticalAlign=middle;whiteSpace=wrap;rounded=0;" vertex="1" parent="1">
          <mxGeometry x="694" y="504" width="60" height="30" as="geometry" />
        </mxCell>
        <mxCell id="Y0cDQDf-0q0PCAZUI5pu-37" value="ora_fine" style="text;html=1;align=center;verticalAlign=middle;whiteSpace=wrap;rounded=0;" vertex="1" parent="1">
          <mxGeometry x="690" y="542" width="60" height="30" as="geometry" />
        </mxCell>
        <mxCell id="Y0cDQDf-0q0PCAZUI5pu-38" value="n_posti" style="text;html=1;align=center;verticalAlign=middle;whiteSpace=wrap;rounded=0;" vertex="1" parent="1">
          <mxGeometry x="690" y="583" width="60" height="30" as="geometry" />
        </mxCell>
        <mxCell id="Y0cDQDf-0q0PCAZUI5pu-53" value="&lt;h1 style=&quot;margin-top: 0px;&quot;&gt;Requisiti funzionali&lt;/h1&gt;&lt;p&gt;&lt;/p&gt;&lt;ul&gt;&lt;li&gt;l&#39;attributo tipo_corso è di tipo string (varchar(12) per il mio sql). Esso può contenere solo i seguenti valori: &quot;principiante&quot;,&quot;esperto&quot;,&quot;avanzato&quot;&lt;/li&gt;&lt;li&gt;nel&#39;entità corso ogni nome sarà univoco poichè voglio gestire il db di una sola palestra. Si suppone, si da per convenzione, che ogni nome corso identifica univocamente un corso&amp;nbsp;&lt;/li&gt;&lt;/ul&gt;&lt;p&gt;&lt;/p&gt;" style="text;html=1;whiteSpace=wrap;overflow=hidden;rounded=0;" vertex="1" parent="1">
          <mxGeometry x="40" y="630" width="720" height="120" as="geometry" />
        </mxCell>
      </root>
    </mxGraphModel>
  </diagram>
</mxfile>
